# xmcd
#
# Track frame offsets:
#	150
#	12406
#	24985
#	40907
#	51202
#	63795
#	78621
#	91662
#	105155
#	116851
#	133358
#	148698
#	159347
#	172976
#	185431
#	196731
#
# Disc length: 2768 seconds
#
# Revision: 0
# Processed by: cddbd v1.5.2PL0 Copyright (c) Steve Scherf et al.
# Submitted via: audiograbber 1.83.01
#
DISCID=cb0ace10
DTITLE=Various Artist - Nashville Super Hits Vol.1
DYEAR=1976
DGENRE=Country
TTITLE0=Freddy Fender - Wasted Days And Wasted Nights 
TTITLE1=Tommy Overstreet - Heaven Is My Woman's Love 
TTITLE2=Narvel Felts - Reconsider Me 
TTITLE3=Billy Crash Craddock  - Rub It In 
TTITLE4=Don Williams - You're My Best Friend
TTITLE5=Donna Fargo - You Can't Be A Beacon (If Your Light Don't Shine) 
TTITLE6=Roy Clark  - Honeymoon Feelin' 
TTITLE7=Joe Stampley - I'm Still Loving You
TTITLE8=Billy Crash Craddock - Ruby, Baby
TTITLE9=Freddy Fender - Secret Love 
TTITLE10=Amazing Rhythm Aces - Third Rate Romance 
TTITLE11=Don Williams - Turn Out The Light
TTITLE12=Billy Crash Craddock  - Easy As Pie 
TTITLE13=Tommy Overstreet  - I'll Never Break These Chains 
TTITLE14=Joe Stampley - Take Me Home To Somewhere 
TTITLE15=Donna Fargo - Superman 
EXTD=
EXTT0=
EXTT1=
EXTT2=
EXTT3=
EXTT4=
EXTT5=
EXTT6=
EXTT7=
EXTT8=
EXTT9=
EXTT10=
EXTT11=
EXTT12=
EXTT13=
EXTT14=
EXTT15=
PLAYORDER=
